<svg width="21" height="22" viewBox="0 0 21 22" fill="none" xmlns="http://www.w3.org/2000/svg">
<path d="M7.09851 14.8065C8.66051 16.3685 12.4595 15.1025 15.5835 11.978C18.708 8.85398 19.974 5.05498 18.412 3.49298M11.6945 2.43198L12.4015 3.13948M9.22001 4.90698L9.92701 5.61398M7.09801 7.73548L7.80501 8.44247M6.39101 11.271L7.09801 11.978M15.5835 1.37148L16.2905 2.07848M14.8765 5.61448L16.2905 7.02848M12.402 8.08948L13.816 9.50348M9.57351 10.2105L10.9875 11.6245" stroke="black" stroke-width="2" stroke-linecap="round" stroke-linejoin="round"/>
<path d="M7.09817 16.928C7.68395 16.3422 7.68395 15.3924 7.09817 14.8066C6.51238 14.2208 5.56263 14.2208 4.97685 14.8066L2.14842 17.6351C1.56263 18.2208 1.56263 19.1706 2.14842 19.7564C2.7342 20.3422 3.68395 20.3422 4.26974 19.7564L7.09817 16.928Z" stroke="black" stroke-width="2" stroke-linecap="round" stroke-linejoin="round"/>
</svg>
