<svg width="24" height="24" viewBox="0 0 24 24" fill="none" xmlns="http://www.w3.org/2000/svg">
<path d="M11.9984 12.6008L15.8984 8.70078C16.0818 8.51745 16.3151 8.42578 16.5984 8.42578C16.8818 8.42578 17.1151 8.51745 17.2984 8.70078C17.4818 8.88411 17.5734 9.11745 17.5734 9.40078C17.5734 9.68411 17.4818 9.91745 17.2984 10.1008L12.6984 14.7008C12.5984 14.8008 12.4901 14.8718 12.3734 14.9138C12.2568 14.9558 12.1318 14.9764 11.9984 14.9758C11.8651 14.9751 11.7401 14.9544 11.6234 14.9138C11.5068 14.8731 11.3984 14.8021 11.2984 14.7008L6.69844 10.1008C6.51511 9.91745 6.42344 9.68411 6.42344 9.40078C6.42344 9.11745 6.51511 8.88411 6.69844 8.70078C6.88177 8.51745 7.11511 8.42578 7.39844 8.42578C7.68177 8.42578 7.91511 8.51745 8.09844 8.70078L11.9984 12.6008Z" fill="black"/>
</svg>
