<svg width="18" height="22" viewBox="0 0 18 22" fill="none" xmlns="http://www.w3.org/2000/svg">
<path d="M17.1281 19.7539C17.1252 19.7458 17.1218 19.738 17.1178 19.7304L12.8541 10.6498L14.7759 7.63292C14.7797 7.62748 14.7831 7.62185 14.7863 7.61604C14.9261 7.38296 14.9999 7.11628 14.9999 6.84448C14.9999 6.57269 14.9261 6.306 14.7863 6.07292C14.7778 6.05792 14.7675 6.04292 14.7581 6.02886L12.75 3.16011V0.844482C12.75 0.64557 12.671 0.454805 12.5303 0.314152C12.3897 0.1735 12.1989 0.0944824 12 0.0944824C11.8011 0.0944824 11.6103 0.1735 11.4697 0.314152C11.329 0.454805 11.25 0.64557 11.25 0.844482V3.13386L10.7569 3.75073C10.5461 4.01419 10.2787 4.22687 9.97462 4.37303C9.6705 4.51918 9.33741 4.59507 9 4.59507C8.66259 4.59507 8.3295 4.51918 8.02538 4.37303C7.72127 4.22687 7.45392 4.01419 7.24313 3.75073L6.75 3.13386V0.844482C6.75 0.64557 6.67098 0.454805 6.53033 0.314152C6.38968 0.1735 6.19891 0.0944824 6 0.0944824C5.80109 0.0944824 5.61032 0.1735 5.46967 0.314152C5.32902 0.454805 5.25 0.64557 5.25 0.844482V3.16011L3.24188 6.02886C3.2325 6.04292 3.22219 6.05792 3.21375 6.07292C3.07395 6.306 3.0001 6.57269 3.0001 6.84448C3.0001 7.11628 3.07395 7.38296 3.21375 7.61604C3.21689 7.62185 3.22033 7.62748 3.22406 7.63292L5.14594 10.6498L0.882188 19.7304C0.878221 19.738 0.874775 19.7458 0.871876 19.7539C0.77417 19.982 0.734578 20.2307 0.756646 20.4779C0.778714 20.725 0.861753 20.9629 0.998323 21.17C1.13489 21.3772 1.32073 21.5473 1.53918 21.665C1.75762 21.7827 2.00186 21.8444 2.25 21.8445H15.75C15.9982 21.8445 16.2426 21.783 16.4611 21.6653C16.6797 21.5477 16.8657 21.3776 17.0024 21.1704C17.139 20.9632 17.2222 20.7253 17.2443 20.4781C17.2664 20.2309 17.2268 19.982 17.1291 19.7539H17.1281ZM4.5 6.84448L6.04031 4.64792L6.07125 4.68729C6.42256 5.12662 6.86821 5.48129 7.37519 5.72502C7.88216 5.96875 8.43748 6.0953 9 6.0953C9.56252 6.0953 10.1178 5.96875 10.6248 5.72502C11.1318 5.48129 11.5774 5.12662 11.9288 4.68729L11.9597 4.64792L13.5 6.84448L11.5894 9.84448H6.41156L4.5 6.84448ZM2.25 20.3445L6.47531 11.3445H11.5228L15.75 20.3445H2.25Z" fill="black"/>
</svg>
