<svg width="22" height="20" viewBox="0 0 22 20" fill="none" xmlns="http://www.w3.org/2000/svg">
<path d="M15.5431 1.75C12.5 1.75 11 4.75 11 4.75C11 4.75 9.49999 1.75 6.45687 1.75C3.98374 1.75 2.0253 3.81906 1.99999 6.28797C1.94843 11.4128 6.06546 15.0573 10.5781 18.1202C10.7025 18.2048 10.8495 18.2501 11 18.2501C11.1505 18.2501 11.2975 18.2048 11.4219 18.1202C15.9341 15.0573 20.0511 11.4128 20 6.28797C19.9747 3.81906 18.0162 1.75 15.5431 1.75Z" stroke="black" stroke-width="2" stroke-linecap="round" stroke-linejoin="round"/>
<path d="M1.25 10H6.5L8.75 5.5L11 13L13.25 8.5L14.75 11.5H20.75" stroke="black" stroke-width="2" stroke-linecap="round" stroke-linejoin="round"/>
</svg>
