<svg width="17" height="19" viewBox="0 0 17 19" fill="none" xmlns="http://www.w3.org/2000/svg">
<path d="M2.5 16.0945H5.5V11.0945C5.5 10.8111 5.596 10.5738 5.788 10.3825C5.98 10.1911 6.21733 10.0951 6.5 10.0945H10.5C10.7833 10.0945 11.021 10.1905 11.213 10.3825C11.405 10.5745 11.5007 10.8118 11.5 11.0945V16.0945H14.5V7.09448L8.5 2.59448L2.5 7.09448V16.0945ZM0.5 16.0945V7.09448C0.5 6.77782 0.571 6.47782 0.713 6.19448C0.855 5.91115 1.05067 5.67782 1.3 5.49448L7.3 0.994483C7.65 0.727816 8.05 0.594482 8.5 0.594482C8.95 0.594482 9.35 0.727816 9.7 0.994483L15.7 5.49448C15.95 5.67782 16.146 5.91115 16.288 6.19448C16.43 6.47782 16.5007 6.77782 16.5 7.09448V16.0945C16.5 16.6445 16.304 17.1155 15.912 17.5075C15.52 17.8995 15.0493 18.0951 14.5 18.0945H10.5C10.2167 18.0945 9.97933 17.9985 9.788 17.8065C9.59667 17.6145 9.50067 17.3771 9.5 17.0945V12.0945H7.5V17.0945C7.5 17.3778 7.404 17.6155 7.212 17.8075C7.02 17.9995 6.78267 18.0951 6.5 18.0945H2.5C1.95 18.0945 1.47933 17.8988 1.088 17.5075C0.696666 17.1161 0.500667 16.6451 0.5 16.0945Z" fill="black"/>
</svg>
