<svg width="21" height="17" viewBox="0 0 21 17" fill="none" xmlns="http://www.w3.org/2000/svg">
<path d="M20.5 6.09448H16.5V3.09448C16.5 1.43448 15.16 0.0944824 13.5 0.0944824C11.84 0.0944824 10.5 1.43448 10.5 3.09448H12.5C12.5 2.54448 12.95 2.09448 13.5 2.09448C14.05 2.09448 14.5 2.54448 14.5 3.09448V6.09448H6.5C7.6 6.09448 8.5 5.19448 8.5 4.09448V0.0944824H2.5V4.09448C2.5 5.19448 3.4 6.09448 4.5 6.09448H0.5V8.09448H2.5V16.0945H18.5V8.09448H20.5V6.09448ZM4.5 2.09448H6.5V4.09448H4.5V2.09448ZM4.5 14.0945V8.09448H9.5V14.0945H4.5ZM16.5 14.0945H11.5V8.09448H16.5V14.0945Z" fill="black"/>
</svg>
