<svg width="22" height="16" viewBox="0 0 22 16" fill="none" xmlns="http://www.w3.org/2000/svg">
<path d="M4.556 14H17.444C18.3871 14 19.2916 13.6254 19.9585 12.9585C20.6254 12.2916 21 11.3871 21 10.444V8C21 7.46957 20.7893 6.96086 20.4142 6.58579C20.0391 6.21071 19.5304 6 19 6C18.4696 6 17.9609 6.21071 17.5858 6.58579C17.2107 6.96086 17 7.46957 17 8V9.2C17 9.41217 16.9157 9.61566 16.7657 9.76569C16.6157 9.91571 16.4122 10 16.2 10H5.8C5.58783 10 5.38434 9.91571 5.23431 9.76569C5.08429 9.61566 5 9.41217 5 9.2V8C5 7.46957 4.78929 6.96086 4.41421 6.58579C4.03914 6.21071 3.53043 6 3 6C2.46957 6 1.96086 6.21071 1.58579 6.58579C1.21071 6.96086 1 7.46957 1 8V10.444C1 11.3871 1.37465 12.2916 2.04153 12.9585C2.70841 13.6254 3.61289 14 4.556 14Z" stroke="black" stroke-width="2"/>
<path d="M19 6C19 5.07 19 4.606 18.923 4.22C18.7687 3.44401 18.3877 2.73121 17.8282 2.17175C17.2688 1.6123 16.556 1.23132 15.78 1.077C15.394 1 14.93 1 14 1H8C7.07 1 6.606 1 6.22 1.077C5.44401 1.23132 4.73121 1.6123 4.17175 2.17175C3.6123 2.73121 3.23132 3.44401 3.077 4.22C3 4.606 3 5.07 3 6" stroke="black" stroke-width="2"/>
<path d="M19 15V14M3 15V14" stroke="black" stroke-width="2" stroke-linecap="round"/>
</svg>
