<svg width="22" height="20" viewBox="0 0 22 20" fill="none" xmlns="http://www.w3.org/2000/svg">
<path d="M8 10H8.01M14 10H14.01M9 14C9.5 14.3 10.2 14.5 11 14.5C11.8 14.5 12.5 14.3 13 14" stroke="black" stroke-width="2" stroke-linecap="round" stroke-linejoin="round"/>
<path d="M18 4.3C18.906 5.43567 19.5236 6.77378 19.8 8.2C20.1381 8.36377 20.4233 8.61948 20.6229 8.93782C20.8224 9.25617 20.9282 9.62429 20.9282 10C20.9282 10.3757 20.8224 10.7438 20.6229 11.0622C20.4233 11.3805 20.1381 11.6362 19.8 11.8C19.3683 13.8135 18.2592 15.618 16.6577 16.9125C15.0562 18.207 13.0592 18.9132 11 18.9132C8.94076 18.9132 6.94379 18.207 5.34231 16.9125C3.74083 15.618 2.63171 13.8135 2.2 11.8C1.86186 11.6362 1.57668 11.3805 1.37714 11.0622C1.17761 10.7438 1.07178 10.3757 1.07178 10C1.07178 9.62429 1.17761 9.25617 1.37714 8.93782C1.57668 8.61948 1.86186 8.36377 2.2 8.2C2.61426 6.1705 3.71589 4.34602 5.31902 3.03437C6.92216 1.72271 8.92866 1.00418 11 1C13 1 14.5 2.1 14.5 3.5C14.5 4.9 13.6 6 12.5 6C11.7 6 11 5.6 11 5" stroke="black" stroke-width="2" stroke-linecap="round" stroke-linejoin="round"/>
</svg>
