<svg width="24" height="22" viewBox="0 0 24 22" fill="none" xmlns="http://www.w3.org/2000/svg">
<path d="M1.28571 17.888V4.87653L3.43542 6.59767C4.52057 7.4651 5.86971 7.93824 7.25828 7.93824H12L14.2149 3.50853C14.4698 3.00066 14.8607 2.57356 15.3441 2.27481C15.8275 1.97607 16.3843 1.81741 16.9526 1.81653H18.1217V5.64281L22.7143 7.17367V8.70453C22.7143 10.3948 21.3429 11.7645 19.6526 11.7645H16.5943V17.888C16.6027 18.1948 16.5495 18.5002 16.4378 18.7861C16.3262 19.072 16.1584 19.3327 15.9444 19.5527C15.7303 19.7727 15.4743 19.9475 15.1915 20.0669C14.9088 20.1863 14.6049 20.2478 14.298 20.2478C13.991 20.2478 13.6872 20.1863 13.4044 20.0669C13.1217 19.9475 12.8657 19.7727 12.6516 19.5527C12.4376 19.3327 12.2698 19.072 12.1581 18.7861C12.0465 18.5002 11.9933 18.1948 12.0017 17.888V17.1217C12.0017 16.2765 11.316 15.5925 10.4709 15.5925H7.40742C6.56228 15.5925 5.87828 16.2782 5.87828 17.1217V17.888C5.88666 18.1948 5.83347 18.5002 5.72184 18.7861C5.61021 19.072 5.44241 19.3327 5.22835 19.5527C5.0143 19.7727 4.75832 19.9475 4.47555 20.0669C4.19277 20.1863 3.88894 20.2478 3.58199 20.2478C3.27505 20.2478 2.97121 20.1863 2.68844 20.0669C2.40567 19.9475 2.14969 19.7727 1.93563 19.5527C1.72157 19.3327 1.55377 19.072 1.44215 18.7861C1.33052 18.5002 1.27732 18.1948 1.28571 17.888Z" stroke="black" stroke-width="2" stroke-linecap="round" stroke-linejoin="round"/>
<path d="M12.0206 7.73767C12.3206 8.96681 13.7349 11.5005 16.9834 11.8091" stroke="black" stroke-width="2" stroke-linecap="round" stroke-linejoin="round"/>
</svg>
