<svg width="16" height="17" viewBox="0 0 16 17" fill="none" xmlns="http://www.w3.org/2000/svg">
<path d="M8.40052 8.50103L5.80052 5.90103C5.6783 5.77881 5.61719 5.62325 5.61719 5.43436C5.61719 5.24547 5.6783 5.08992 5.80052 4.9677C5.92274 4.84547 6.0783 4.78436 6.26719 4.78436C6.45608 4.78436 6.61163 4.84547 6.73385 4.9677L9.80052 8.03436C9.86719 8.10103 9.91452 8.17325 9.94252 8.25103C9.97052 8.32881 9.9843 8.41214 9.98385 8.50103C9.98341 8.58992 9.96963 8.67325 9.94252 8.75103C9.91541 8.82881 9.86808 8.90103 9.80052 8.9677L6.73385 12.0344C6.61163 12.1566 6.45608 12.2177 6.26719 12.2177C6.0783 12.2177 5.92274 12.1566 5.80052 12.0344C5.6783 11.9121 5.61719 11.7566 5.61719 11.5677C5.61719 11.3788 5.6783 11.2233 5.80052 11.101L8.40052 8.50103Z" fill="black"/>
</svg>
