<svg width="16" height="16" viewBox="0 0 16 16" fill="none" xmlns="http://www.w3.org/2000/svg">
<path d="M12.281 14.1667L10.3104 12.196L9.10871 10.9944M9.11004 10.9934L7.81337 9.70004M13.776 13.776L11.3867 11.3867L10.25 10.25L9.21004 9.21004M10.9934 9.11004L9.70004 7.81671M10.994 9.10871L12.196 10.3104L14.1667 12.281M6.79004 9.21004L5.74671 10.2534M1.83337 8.00004H4.80604M8.00004 6.29004V1.83337M13.776 2.22371L8.63671 7.36337M8.63671 7.36337C8.29337 7.01671 7.73337 7.01004 7.37671 7.35004C7.01671 7.69337 7.00671 8.26337 7.35004 8.62337C7.4319 8.70873 7.52977 8.77713 7.63806 8.82467C7.74635 8.87221 7.86294 8.89795 7.98118 8.90042C8.09942 8.9029 8.21699 8.88206 8.32718 8.8391C8.43737 8.79614 8.53801 8.7319 8.62337 8.65004C8.70873 8.56818 8.77713 8.47031 8.82467 8.36202C8.87221 8.25373 8.89795 8.13714 8.90042 8.0189C8.9029 7.90066 8.88206 7.78309 8.8391 7.6729C8.79614 7.56271 8.7319 7.46207 8.65004 7.37671L8.63671 7.36337ZM6.79004 6.79004L5.74337 5.74337L2.22337 2.22337" stroke="black" stroke-width="0.333333" stroke-linecap="round" stroke-linejoin="round"/>
<path d="M11.194 8.00003C11.1941 8.4195 11.1116 8.83487 10.9511 9.22242C10.7906 9.60998 10.5553 9.96212 10.2587 10.2587C9.96212 10.5553 9.60998 10.7906 9.22242 10.9511C8.83487 11.1116 8.4195 11.1941 8.00003 11.194C7.58056 11.1941 7.16519 11.1116 6.77764 10.9511C6.39008 10.7906 6.03794 10.5553 5.74134 10.2587C5.44473 9.96212 5.20946 9.60998 5.04898 9.22242C4.8885 8.83487 4.80594 8.4195 4.80603 8.00003C4.80603 7.58059 4.88865 7.16525 5.04916 6.77774C5.20967 6.39023 5.44494 6.03812 5.74153 5.74153C6.03812 5.44494 6.39023 5.20967 6.77774 5.04916C7.16525 4.88865 7.58059 4.80603 8.00003 4.80603C8.41947 4.80603 8.83481 4.88865 9.22232 5.04916C9.60983 5.20967 9.96194 5.44494 10.2585 5.74153C10.5551 6.03812 10.7904 6.39023 10.9509 6.77774C11.1114 7.16525 11.194 7.58059 11.194 8.00003Z" stroke="black" stroke-width="0.333333" stroke-linecap="round" stroke-linejoin="round"/>
<path d="M12.8023 7.99996C12.8023 10.6523 10.6523 12.8023 7.99996 12.8023C5.34763 12.8023 3.19763 10.6523 3.19763 7.99996C3.19763 5.34763 5.34763 3.19763 7.99996 3.19763C10.6523 3.19763 12.8023 5.34763 12.8023 7.99996Z" stroke="black" stroke-width="0.333333" stroke-linecap="round" stroke-linejoin="round"/>
<path d="M12.8334 1.83337H3.16671C2.43033 1.83337 1.83337 2.43033 1.83337 3.16671V12.8334C1.83337 13.5698 2.43033 14.1667 3.16671 14.1667H12.8334C13.5698 14.1667 14.1667 13.5698 14.1667 12.8334V3.16671C14.1667 2.43033 13.5698 1.83337 12.8334 1.83337Z" stroke="black" stroke-width="0.333333" stroke-linecap="round" stroke-linejoin="round"/>
<path d="M9.70004 7.81671C9.72842 8.07085 9.6991 8.32812 9.61426 8.56937C9.52942 8.81061 9.39125 9.0296 9.21004 9.21004C9.02924 9.39172 8.80969 9.53017 8.56783 9.61502C8.32597 9.69987 8.06805 9.72894 7.81337 9.70004C7.42621 9.65871 7.06497 9.48574 6.79004 9.21004C6.48004 8.90004 6.29004 8.47337 6.29004 8.00004C6.29004 7.52671 6.48004 7.10004 6.79004 6.79004C7.10004 6.48004 7.52671 6.29004 8.00004 6.29004C8.47337 6.29004 8.90004 6.48004 9.21004 6.79004C9.48004 7.06004 9.66004 7.41671 9.70004 7.81671Z" stroke="black" stroke-width="0.333333" stroke-linecap="round" stroke-linejoin="round"/>
</svg>
