<svg width="90" height="28" viewBox="0 0 90 28" fill="none" xmlns="http://www.w3.org/2000/svg">
<path d="M25.9654 16.4096C25.9654 16.771 25.9654 17.4216 26.3343 17.4216C26.654 17.4216 27.4654 16.7469 27.5392 14.2891H27.7113C27.7113 14.8433 27.5638 17.0361 26.4818 17.5903C25.9408 17.8795 25.2277 18.024 24.5638 18.024C24.0966 18.024 23.6786 17.9518 23.3097 17.8072C21.9818 17.3012 21.5884 16.771 21.2195 15.3975C20.7277 16.9156 20.0146 17.5421 19.3507 17.8072C19.0064 17.9518 18.5638 17.9759 18.0474 17.9759C16.0556 18.024 14.0147 17.4457 14.0147 14.9397C14.0147 14.5783 14.0884 14.1927 14.1868 13.8795C14.7032 12.2409 15.7605 12.0722 17.4081 11.8072L17.9737 11.7108C21.1212 11.2048 21.2441 9.6144 21.2441 8.24091C21.2441 5.99994 20.4327 5.80717 19.5474 5.80717C19.0556 5.80717 17.5802 5.87946 17.113 7.01199C17.2605 6.9397 17.4327 6.9156 17.6294 6.9156C18.49 6.9156 19.6212 7.54211 19.6212 8.84332C19.6212 10.2409 18.3917 11.1084 17.236 11.1084C16.0802 11.1084 14.9491 10.2168 14.9491 8.79512C14.9491 6.86741 17.4081 5.5903 20.3589 5.5903C21.8097 5.5903 23.3343 5.87946 24.3671 6.60235C25.9163 7.66259 25.99 9.06018 25.99 10.3855V16.4096H25.9654ZM18.6868 13.3734C18.613 13.8313 18.5884 14.2409 18.5884 14.6024C18.5884 15.1325 18.6376 15.6144 18.6868 16.1686C18.7114 16.6265 18.7605 17.518 19.3507 17.518C19.5228 17.518 19.695 17.4698 19.8179 17.3493C21.1704 16.4819 21.2195 14.4337 21.2195 12.6746V9.71079C21.1212 10.265 20.7523 10.6505 20.5064 10.8192C18.9573 11.9277 18.8343 12.0963 18.6868 13.3734Z" fill="#FAC912"/>
<path d="M35.8526 17.9037H27.0985V17.7592C28.9428 17.7592 29.1149 17.2049 29.1149 15.4941V2.53023C29.1149 0.81938 28.9428 0.313356 27.0985 0.313356V0.168777H33.8854V15.4459C33.8854 17.1567 34.0329 17.7592 35.8772 17.7592V17.9037H35.8526Z" fill="#FAC912"/>
<path d="M43.8937 17.9037H35.1397V17.7591C36.9839 17.7591 37.156 17.2049 37.156 15.4941V2.53021C37.156 0.819365 36.9839 0.313341 35.1397 0.313341V0.168762H41.9265V15.4459C41.9265 17.1567 42.0741 17.7591 43.9183 17.7591V17.9037H43.8937Z" fill="#FAC912"/>
<path d="M47.9754 11.6867V13.1084C47.9754 16.0481 48.5163 17.8072 50.6803 17.8072C53.2131 17.8072 54.6393 15.1807 54.9098 12.8433H55.0819C54.9344 14.0481 54.4426 16.3373 52.4753 17.4939C51.8114 17.8795 50.8278 18.0482 49.8196 18.0482C44.5328 18.0482 43.2049 14.4337 43.2049 12.1445C43.2049 10.4819 43.8442 8.72284 45.4918 7.15657C46.6721 6.04814 48.2213 5.6144 49.6229 5.6144C52.6967 5.6144 54.0491 7.37344 54.713 9.10838C55.0081 9.95176 55.0327 10.7228 55.0327 11.7108H47.9754V11.6867ZM47.9754 10.8674V11.5421H50.7295C50.7786 10.6506 50.8032 9.44573 50.8032 8.57826C50.8032 7.34934 50.7786 6.43368 50.0901 5.85537C49.9918 5.75898 49.795 5.73488 49.5737 5.73488C48.2459 5.73488 47.9754 7.32525 47.9754 10.8674Z" fill="#FAC912"/>
<path d="M62.0638 6.48188C61.3752 7.25296 61.2769 8.19272 61.2769 9.6626V15.4698C61.2769 17.1807 61.4244 17.7349 63.2687 17.7349V17.8795H54.5146V17.7349C56.3589 17.7349 56.531 17.1807 56.531 15.4698V8.09634C56.531 6.38549 56.3589 5.90356 54.5146 5.90356V5.73489H61.0802V8.14453C61.3998 6.84332 62.1375 5.59031 63.8834 5.59031C65.531 5.59031 66.3178 6.89152 66.3178 8.26501C66.3178 9.73489 65.3096 10.6987 64.0556 10.6987C62.8998 10.6987 61.867 9.90357 61.867 8.53007C61.867 7.27706 62.7523 6.40959 64.0801 6.40959C64.5965 6.40959 65.0883 6.57826 65.5064 6.89152C65.408 5.87947 64.3752 5.75898 64.0064 5.75898C63.1703 5.75898 62.4818 6.02404 62.0638 6.48188Z" fill="#FAC912"/>
<path d="M74.8029 17.9035H66.0488V17.7589C67.8931 17.7589 68.0652 17.2047 68.0652 15.4939V8.09627C68.0652 6.38543 67.8931 5.9035 66.0488 5.9035V5.73483H72.8357V15.4939C72.8357 17.2047 72.9832 17.7589 74.8275 17.7589V17.9035H74.8029ZM70.2291 0.361328C71.6554 0.361328 72.8357 1.37338 72.8357 2.60229C72.8357 3.83121 71.6554 4.84326 70.2291 4.84326C68.8029 4.84326 67.6472 3.83121 67.6472 2.60229C67.6472 1.37338 68.8029 0.361328 70.2291 0.361328Z" fill="#FAC912"/>
<path d="M4.54839 13.9998C4.74511 14.0962 5.90084 14.4336 7.42543 14.4336C10.6467 14.4336 13.0811 12.795 13.0811 10.554C13.0811 9.95162 12.8844 9.37331 12.5156 8.89138C11.0156 6.98776 8.65493 7.49379 8.65493 5.3733C8.65493 4.48174 9.14673 3.3733 10.5975 3.03595C10.0074 3.44559 9.66312 4.0721 9.66312 4.77089C9.66312 5.90342 10.573 6.65041 11.6549 6.65041C12.7615 6.65041 13.7205 5.87933 13.7205 4.6986C13.7205 4.12029 13.3762 2.7468 11.5074 2.7468C9.78607 2.7468 8.50739 3.78294 8.50739 5.3733C8.50739 5.95162 8.67952 6.52993 8.87624 6.96367C8.43362 6.89138 7.96641 6.84318 7.45002 6.84318C4.69593 6.84318 1.74512 8.36126 1.74512 10.6504C1.76971 12.5781 3.24511 13.4697 4.54839 13.9998ZM7.45002 6.98776C8.60575 6.98776 8.90083 7.3974 8.90083 11.3733C8.90083 12.4817 8.82706 13.4456 8.63034 13.7348C8.38444 14.048 8.06477 14.3131 7.59756 14.3131C6.39264 14.3131 6.09756 13.5661 6.09756 10.7709C6.09756 7.49379 6.63854 6.98776 7.45002 6.98776Z" fill="#FAC912"/>
<path d="M7.22948 15.2048C5.68031 15.2048 4.00818 15.4699 2.60655 16.8434C2.01639 17.4217 1.52459 18.506 1.52459 18.506L1.62295 18.5542C2.2377 17.1807 4.00818 15.7349 5.48359 15.7349C6.51637 15.7349 7.67211 16.1205 8.33604 17.4217C8.70489 18.1446 8.90161 19.7831 8.90161 21.5181C8.90161 26.6024 7.6967 27.8072 5.90162 27.8072C2.9754 27.8072 1.00819 25.8072 1.00819 24.506C1.37704 24.9879 2.09016 25.2289 2.82786 25.2289C5.04097 25.2289 5.58195 23.6385 5.58195 22.6024C5.58195 20.9157 4.37703 20 2.92622 20C1.49999 20 0 21.1566 0 23.2771C0 24.1205 0.270491 25.0602 0.860653 25.7349C2.38524 27.5181 3.88523 28 6.14752 28C10.3524 28 14.459 25.3494 14.459 21.2048C14.459 17.5903 10.9426 15.2048 7.22948 15.2048Z" fill="#FAC912"/>
<path d="M82.0305 5.34931C80.4813 5.34931 78.8092 5.61437 77.4076 6.98787C76.8174 7.56618 76.3256 8.65052 76.3256 8.65052L76.424 8.67461C77.0387 7.30112 78.8092 5.85534 80.2846 5.85534C81.3174 5.85534 82.4731 6.24088 83.1371 7.54208C83.5059 8.26498 83.7026 9.90353 83.7026 11.6385C83.7026 16.7228 82.4977 17.9276 80.7027 17.9276C77.7764 17.9276 75.8092 15.9276 75.8092 14.6264C76.1781 15.1084 76.8912 15.3493 77.6289 15.3493C79.842 15.3493 80.383 13.759 80.383 12.7228C80.383 11.0361 79.1781 10.1204 77.7273 10.1204C76.301 10.1204 74.801 11.277 74.801 13.3975C74.801 14.2409 75.0715 15.1806 75.6617 15.8553C77.1863 17.6385 78.6863 18.1204 80.9486 18.1204C85.1535 18.1204 89.26 15.4698 89.26 11.3252C89.26 7.71076 85.7436 5.34931 82.0305 5.34931Z" fill="#FAC912"/>
<path d="M77.1149 0.0481928C77.9755 0.240964 79.328 0.361446 80.8034 0.361446C82.2542 0.361446 83.8034 0.240964 85.1312 0C84.6886 1.68675 84.246 2.84338 79.2788 3.3735C76.7952 3.63856 76.6231 4.65061 76.6231 4.65061L77.1149 0.0481928Z" fill="#FAC912"/>
</svg>
