<svg width="16" height="17" viewBox="0 0 16 17" fill="none" xmlns="http://www.w3.org/2000/svg">
<path d="M9.80669 12.0267C9.86849 11.965 9.91752 11.8918 9.95097 11.8111C9.98443 11.7305 10.0016 11.644 10.0016 11.5567C10.0016 11.4694 9.98443 11.3829 9.95097 11.3023C9.91752 11.2216 9.86849 11.1484 9.80669 11.0867L7.22002 8.50003L9.80669 5.91336C9.86841 5.85164 9.91737 5.77836 9.95077 5.69772C9.98417 5.61708 10.0014 5.53065 10.0014 5.44336C10.0014 5.35607 9.98417 5.26964 9.95077 5.189C9.91737 5.10835 9.86841 5.03508 9.80669 4.97336C9.74496 4.91164 9.67169 4.86268 9.59105 4.82928C9.51041 4.79587 9.42397 4.77868 9.33669 4.77868C9.2494 4.77868 9.16297 4.79587 9.08232 4.82928C9.00168 4.86268 8.92841 4.91164 8.86669 4.97336L5.80669 8.03336C5.74488 8.09503 5.69585 8.16829 5.6624 8.24894C5.62894 8.32959 5.61172 8.41605 5.61172 8.50336C5.61172 8.59067 5.62894 8.67713 5.6624 8.75778C5.69585 8.83842 5.74488 8.91168 5.80669 8.97336L8.86669 12.0334C9.12002 12.2867 9.54669 12.2867 9.80669 12.0267Z" fill="#111111"/>
</svg>
