<svg width="16" height="16" viewBox="0 0 16 16" fill="none" xmlns="http://www.w3.org/2000/svg">
<path d="M7.43065 2.01537C7.68398 1.56004 7.81065 1.33337 7.99998 1.33337C8.18931 1.33337 8.31598 1.56004 8.56931 2.01537L8.63465 2.13271C8.70665 2.26204 8.74265 2.32604 8.79865 2.36871C8.85531 2.41137 8.92531 2.42737 9.06531 2.45871L9.19198 2.48804C9.68398 2.59937 9.92998 2.65471 9.98865 2.84271C10.0473 3.03071 9.87931 3.22737 9.54398 3.61937L9.45731 3.72071C9.36198 3.83204 9.31398 3.88737 9.29265 3.95671C9.27131 4.02604 9.27865 4.10004 9.29265 4.24871L9.30598 4.38404C9.35665 4.90737 9.38198 5.16937 9.22931 5.28537C9.07598 5.40204 8.84531 5.29537 8.38465 5.08337L8.26598 5.02871C8.13465 4.96871 8.06931 4.93804 7.99998 4.93804C7.93065 4.93804 7.86531 4.96871 7.73398 5.02871L7.61531 5.08337C7.15465 5.29537 6.92398 5.40204 6.77065 5.28537C6.61731 5.16937 6.64331 4.90737 6.69398 4.38404L6.70731 4.24871C6.72131 4.10004 6.72865 4.02604 6.70731 3.95671C6.68598 3.88737 6.63798 3.83204 6.54265 3.72071L6.45598 3.61937C6.12065 3.22737 5.95265 3.03137 6.01131 2.84271C6.06998 2.65471 6.31598 2.59937 6.80798 2.48804L6.93465 2.45871C7.07465 2.42737 7.14465 2.41204 7.20131 2.36871C7.25731 2.32604 7.29331 2.26204 7.36531 2.13271L7.43065 2.01537ZM8.66665 6.66671H7.33331C6.39065 6.66671 5.91931 6.66671 5.62665 6.96004C5.33331 7.25204 5.33331 7.72337 5.33331 8.66671V14.6667H10.6666V8.66671C10.6666 7.72404 10.6666 7.25271 10.3733 6.96004C10.0813 6.66671 9.60998 6.66671 8.66665 6.66671Z" fill="black"/>
<path opacity="0.5" d="M5.03998 12.96C4.74798 12.6666 4.27665 12.6666 3.33331 12.6666C2.38998 12.6666 1.91931 12.6666 1.62665 12.96C1.33331 13.252 1.33331 13.7233 1.33331 14.6666H5.33331C5.33331 13.724 5.33331 13.2526 5.03998 12.96ZM10.6666 12.6666V14.6666H14.6666V12.6666C14.6666 11.724 14.6666 11.2526 14.3733 10.96C14.0813 10.6666 13.61 10.6666 12.6666 10.6666C11.7233 10.6666 11.2526 10.6666 10.96 10.96C10.6666 11.252 10.6666 11.7233 10.6666 12.6666Z" fill="black"/>
</svg>
